<svg width="470" height="470" viewBox="0 0 470 470" fill="none" xmlns="http://www.w3.org/2000/svg">
<path fill-rule="evenodd" clip-rule="evenodd" d="M216.066 0.905877C111.733 9.39488 25.0463 86.2389 4.65525 188.312C-4.96575 236.475 0.356253 284.715 20.3403 330.477C42.6333 381.525 87.1343 426.082 138.566 448.849C217.625 483.847 307.167 473.6 376.431 421.629C394.684 407.933 416.39 384.941 429.337 365.589C482.234 286.525 482.303 183.526 429.511 104.572C420.109 90.5109 413.11 82.1469 399.167 68.3119C375.75 45.0749 351.699 29.1849 321.77 17.1749C298.988 8.03288 276.001 2.75888 250.566 0.836877C235.589 -0.295123 230.698 -0.285123 216.066 0.905877ZM167.566 139.887C170.873 141.38 180.35 150.182 203.309 173.087L234.552 204.256L266.309 172.671C301.45 137.721 302.507 136.934 312.731 138.145C326.356 139.759 334.865 153.703 330.067 166.555C328.581 170.537 323.145 176.487 296.714 203.062L265.136 234.812L296.714 266.562C331.656 301.695 332.444 302.754 331.233 312.977C329.619 326.602 315.675 335.111 302.823 330.313C298.841 328.827 292.89 323.39 266.309 296.953L234.552 265.368L203.309 296.543C182.517 317.289 170.822 328.235 168.348 329.265C160.289 332.619 149.278 330.542 143.933 324.659C138.52 318.703 136.908 308.731 140.113 301.03C141.143 298.556 152.09 286.859 172.842 266.062L204.024 234.812L172.848 203.562C149.938 180.597 141.134 171.119 139.641 167.812C135.825 159.359 137.412 150.913 144.067 144.259C150.65 137.676 159.159 136.093 167.566 139.887Z" fill="black"/>
</svg>
