<svg width="511" height="512" viewBox="0 0 511 512" fill="none" xmlns="http://www.w3.org/2000/svg">
<path fill-rule="evenodd" clip-rule="evenodd" d="M231.557 0.599648C181.841 5.40965 132.562 25.6246 93.921 57.0606C82.555 66.3076 64.559 84.4467 55.494 95.7957C32.573 124.49 13.79 163.303 6 198.066C1.108 219.902 0 230.517 0 255.566C0 280.615 1.108 291.23 6 313.066C13.374 345.971 30.206 381.933 51.266 409.774C92.186 463.868 151.237 498.584 220.421 509.219C236.531 511.696 274.311 511.696 290.421 509.219C335.447 502.298 374.478 486.065 410.129 459.436C422.728 450.024 449.879 422.873 459.291 410.274C485.92 374.623 502.153 335.592 509.074 290.566C511.551 274.456 511.551 236.676 509.074 220.566C500.924 167.548 478.477 119.857 444.404 83.1686C402.927 38.5096 351.397 11.2006 291.421 2.09465C278.861 0.187648 244.644 -0.667352 231.557 0.599648ZM295.629 102.312C314.169 111.073 322.029 131.312 313.892 149.336C310.945 155.864 302.629 164.127 295.938 167.175C276.426 176.064 251.953 168.216 242.644 150.086C238.871 142.738 238.361 130.37 241.488 122.073C244.32 114.56 252.932 105.595 260.763 102.01C271.505 97.0917 284.828 97.2067 295.629 102.312ZM256.968 205.935C280.368 210.96 292.784 227.818 290.896 252.003C289.844 265.484 288.649 270.856 279.382 303.747C267.658 345.36 266.168 352.037 266.033 363.566C265.862 378.079 268.97 381.91 282.281 383.594C289.501 384.508 298.884 383.331 307.207 380.468C310.247 379.422 312.837 378.566 312.964 378.566C313.951 378.566 308.54 395.92 307.345 396.589C303.605 398.681 273.342 409.461 267.921 410.631C260.297 412.277 241.726 412.263 233.953 410.606C224.695 408.632 217.531 404.76 210.833 398.11C202.077 389.416 199.976 383.666 200.036 368.566C200.093 354.227 201.367 348.033 212.032 310.247C223.067 271.146 224.678 263.935 224.811 253.066C224.938 242.66 223.234 238.537 217.386 235.101C214.465 233.385 212.273 233.079 203.421 233.146C194.752 233.212 191.656 233.681 185.667 235.838L178.412 238.45L178.941 236.258C179.231 235.052 180.246 230.98 181.195 227.207L182.921 220.348L188.421 218.132C199.418 213.699 218.731 207.38 225.247 206.083C233.901 204.36 249.299 204.288 256.968 205.935Z" fill="black"/>
</svg>
